<svg width="512" height="512" viewBox="0 0 512 512" fill="none" xmlns="http://www.w3.org/2000/svg">
<rect width="512" height="512" fill="white"/>
<path d="M142.684 134.126L386.606 387.837L360.5 413.126L322.974 372.337L284.632 409.047C266.685 426.179 243.842 435.969 218.553 435.153C194.079 434.337 170.421 424.548 154.105 406.6C136.974 388.653 128 365.811 128 341.337C128.816 316.863 138.605 293.205 156.553 276.889L181.842 252.416L207.132 278.521L181.842 302.995C171.237 313.6 164.711 328.284 164.711 342.968C163.895 357.653 170.421 372.337 180.211 382.942C190.816 393.547 204.684 400.074 220.184 400.074C235.684 400.89 249.553 394.363 260.158 384.574L298.5 347.863L143.5 187.152L142.684 134.126Z" fill="#005172"/>
<path d="M366.211 201.021C383.343 218.968 392.316 241.81 392.316 266.284C392.316 290.758 381.711 314.416 363.764 330.732L360.5 333.995L335.211 308.705L338.474 305.442C349.079 294.837 355.606 280.153 355.606 265.468C356.422 250.784 349.895 236.1 340.106 225.494C334.395 218.968 327.869 214.889 319.711 211.626V174.915C337.658 178.994 353.158 187.152 366.211 201.021ZM166.342 98.2311L148.395 115.363L172.869 141.468L190.816 124.336C207.948 108.021 234.869 108.836 251.184 125.152C267.5 142.284 266.684 169.205 249.553 185.521L232.421 201.837L257.711 227.942L274.842 211.626C305.842 181.442 306.658 131.679 277.29 100.678C247.106 69.6784 197.342 68.8626 166.342 98.2311Z" fill="#3095B4"/>
</svg>
