<svg width="40" height="40" viewBox="0 0 40 40" fill="none" xmlns="http://www.w3.org/2000/svg">
<circle cx="20" cy="20" r="20" fill="#151718"/>
<g clip-path="url(#clip0_1918_15990)">
<path d="M22.9092 10.5256C22.0254 9.17887 21.815 9 20.0158 9H19.9947H19.9737C18.1745 9 17.9746 9.17887 17.0802 10.5256C16.249 11.7883 8 26.8974 8 27.3183C8 27.9285 8.15783 28.5072 8.726 29.3279C9.30469 30.1591 10.3043 30.6221 11.0302 29.8856C11.5248 29.3911 16.8172 20.2687 19.374 16.8176C19.6791 16.3862 20.3104 16.3862 20.626 16.8176C23.1828 20.2687 28.4752 29.3911 28.9698 29.8856C29.6957 30.6221 30.6953 30.1591 31.274 29.3279C31.8422 28.5072 32 27.9285 32 27.3183C31.9895 26.8974 23.7405 11.7777 22.9092 10.5256Z" fill="white"/>
</g>
<defs>
<clipPath id="clip0_1918_15990">
<rect width="24" height="21.2812" fill="white" transform="translate(8 9)"/>
</clipPath>
</defs>
</svg>
