<svg width="40" height="40" viewBox="0 0 40 40" fill="none" xmlns="http://www.w3.org/2000/svg">
<circle cx="20" cy="20" r="20" fill="white"/>
<g clip-path="url(#clip0_1918_16041)">
<path d="M16.0016 32C18.2096 32 20.0016 30.208 20.0016 28V24H16.0016C13.7936 24 12.0016 25.792 12.0016 28C12.0016 30.208 13.7936 32 16.0016 32Z" fill="#0ACF83"/>
<path d="M12.0016 20C12.0016 17.792 13.7936 16 16.0016 16H20.0016V24H16.0016C13.7936 24 12.0016 22.208 12.0016 20Z" fill="#A259FF"/>
<path d="M12.0016 12C12.0016 9.792 13.7936 8 16.0016 8H20.0016V16H16.0016C13.7936 16 12.0016 14.208 12.0016 12Z" fill="#F24E1E"/>
<path d="M20.0016 8H24.0016C26.2096 8 28.0016 9.792 28.0016 12C28.0016 14.208 26.2096 16 24.0016 16H20.0016V8Z" fill="#FF7262"/>
<path d="M28.0016 20C28.0016 22.208 26.2096 24 24.0016 24C21.7936 24 20.0016 22.208 20.0016 20C20.0016 17.792 21.7936 16 24.0016 16C26.2096 16 28.0016 17.792 28.0016 20Z" fill="#1ABCFE"/>
</g>
<defs>
<clipPath id="clip0_1918_16041">
<rect width="16.0032" height="24" fill="white" transform="translate(12 8)"/>
</clipPath>
</defs>
</svg>
