<svg width="36" height="24" viewBox="0 0 36 24" fill="none" xmlns="http://www.w3.org/2000/svg">
<path d="M24 18H30V24H24V18Z" fill="white"/>
<path d="M0 18H6V24H0V18Z" fill="white"/>
<path d="M0 12H6V18H0V12Z" fill="white"/>
<path d="M6 12H12V18H6V12Z" fill="white"/>
<path d="M0 6H6V12H0V6Z" fill="white"/>
<path d="M6 0H12V6H6V0Z" fill="white"/>
<path d="M30 12H36V18H30V12Z" fill="white"/>
<path d="M30 6H36V12H30V6Z" fill="white"/>
<path d="M18 12H24V18H18V12Z" fill="white"/>
<path d="M18 6H24V12H18V6Z" fill="white"/>
</svg>
