<svg width="40" height="40" viewBox="0 0 40 40" fill="none" xmlns="http://www.w3.org/2000/svg">
<circle cx="20" cy="20" r="20" fill="#F7DF1E"/>
<path d="M22.8743 22.9251C23.6079 24.1229 24.5622 25.0032 26.2502 25.0032C27.6681 25.0032 28.5739 24.2945 28.5739 23.3153C28.5739 22.1419 27.6432 21.7263 26.0825 21.0436L25.227 20.6765C22.7576 19.6245 21.1171 18.3065 21.1171 15.5203C21.1171 12.9538 23.0726 11 26.1288 11C28.3045 11 29.8687 11.7572 30.9959 13.7399L28.3311 15.451C27.7444 14.3989 27.1114 13.9845 26.1288 13.9845C25.1264 13.9845 24.4911 14.6203 24.4911 15.451C24.4911 16.4776 25.127 16.8932 26.5952 17.5291L27.4508 17.8955C30.3583 19.1424 32 20.4135 32 23.2714C32 26.3524 29.5797 28.0403 26.3293 28.0403C23.1512 28.0403 21.098 26.5258 20.0934 24.5408L22.8743 22.9251ZM10.7856 23.2217C11.3232 24.1755 11.8122 24.9818 12.988 24.9818C14.1123 24.9818 14.8216 24.5419 14.8216 22.8315V11.1954H18.2436V22.8777C18.2436 26.4212 16.1661 28.0339 13.1336 28.0339C10.3937 28.0339 8.80696 26.616 8 24.9081L10.7856 23.2217Z" fill="black"/>
</svg>
