<svg width="40" height="40" viewBox="0 0 40 40" fill="none" xmlns="http://www.w3.org/2000/svg">
<circle cx="20" cy="20" r="20" fill="#282C34"/>
<g clip-path="url(#clip0_1918_15982)">
<path d="M20 21.8157C21.1814 21.8157 22.1391 20.858 22.1391 19.6766C22.1391 18.4952 21.1814 17.5375 20 17.5375C18.8186 17.5375 17.8609 18.4952 17.8609 19.6766C17.8609 20.858 18.8186 21.8157 20 21.8157Z" fill="white"/>
<path d="M20 24.0592C26.3393 24.0592 31.4783 22.097 31.4783 19.6766C31.4783 17.2561 26.3393 15.2939 20 15.2939C13.6607 15.2939 8.52174 17.2561 8.52174 19.6766C8.52174 22.097 13.6607 24.0592 20 24.0592Z" stroke="white"/>
<path d="M16.2046 21.8679C19.3742 27.3578 23.643 30.8273 25.7391 29.617C27.8353 28.4068 26.9651 22.9752 23.7955 17.4853C20.6258 11.9953 16.357 8.52588 14.2609 9.7361C12.1647 10.9463 13.0349 16.3779 16.2046 21.8679Z" stroke="white"/>
<path d="M16.2046 17.4853C13.0349 22.9753 12.1647 28.4068 14.2609 29.6171C16.357 30.8273 20.6258 27.3579 23.7955 21.8679C26.9651 16.3779 27.8353 10.9463 25.7391 9.73612C23.643 8.5259 19.3742 11.9953 16.2046 17.4853Z" stroke="white"/>
</g>
<defs>
<clipPath id="clip0_1918_15982">
<rect width="24" height="21.3532" fill="white" transform="translate(8 9)"/>
</clipPath>
</defs>
</svg>
