<svg width="40" height="40" viewBox="0 0 40 40" fill="none" xmlns="http://www.w3.org/2000/svg">
<circle cx="20" cy="20" r="20" fill="#3178C6"/>
<path fill-rule="evenodd" clip-rule="evenodd" d="M21.564 23.5516V26.9649C22.1189 27.2493 22.7751 27.4626 23.5328 27.6048C24.2904 27.7471 25.0889 27.8182 25.9283 27.8182C26.7465 27.8182 27.5236 27.74 28.2599 27.5835C28.9962 27.4271 29.6418 27.1693 30.1967 26.8102C30.7515 26.4511 31.1908 25.9818 31.5145 25.4022C31.8381 24.8227 32 24.1063 32 23.253C32 22.6343 31.9075 22.0921 31.7226 21.6264C31.5376 21.1606 31.2709 20.7464 30.9223 20.3838C30.5737 20.0211 30.1557 19.6958 29.6685 19.4078C29.1812 19.1198 28.6316 18.8478 28.0198 18.5918C27.5717 18.4069 27.1697 18.2274 26.814 18.0532C26.4583 17.8789 26.156 17.7012 25.907 17.5199C25.658 17.3385 25.4659 17.1465 25.3308 16.9439C25.1957 16.7412 25.128 16.5119 25.128 16.2558C25.128 16.0212 25.1885 15.8097 25.3095 15.6212C25.4304 15.4327 25.6011 15.271 25.8216 15.1359C26.0422 15.0008 26.3125 14.8959 26.6326 14.8212C26.9528 14.7466 27.3084 14.7093 27.6997 14.7093C27.9842 14.7093 28.2848 14.7306 28.6013 14.7732C28.9179 14.8159 29.2363 14.8817 29.5564 14.9705C29.8765 15.0595 30.1877 15.1715 30.4901 15.3065C30.7924 15.4417 31.0716 15.5981 31.3277 15.7759V12.5866C30.8085 12.3875 30.2411 12.24 29.6258 12.144C29.0104 12.048 28.3043 12 27.5076 12C26.6966 12 25.9283 12.0871 25.2028 12.2613C24.4772 12.4355 23.8387 12.7075 23.2873 13.0773C22.736 13.4471 22.3003 13.9182 21.9802 14.4906C21.6601 15.063 21.5 15.7474 21.5 16.5438C21.5 17.5607 21.7935 18.4283 22.3804 19.1465C22.9672 19.8646 23.8582 20.4726 25.0534 20.9704C25.5229 21.1624 25.9604 21.3508 26.3659 21.5357C26.7713 21.7206 27.1217 21.9126 27.4169 22.1117C27.7121 22.3108 27.9451 22.5277 28.1159 22.7624C28.2866 22.997 28.372 23.2636 28.372 23.5623C28.372 23.7828 28.3186 23.9872 28.2119 24.1756C28.1052 24.3641 27.9433 24.5276 27.7264 24.6663C27.5094 24.805 27.2391 24.9134 26.9154 24.9916C26.5917 25.0698 26.2129 25.1089 25.779 25.1089C25.0391 25.1089 24.3064 24.9792 23.5808 24.7196C22.8552 24.4601 22.1829 24.0708 21.564 23.5516ZM15.8259 15.142H20.2045V12.3409H8V15.142H12.3572V27.6136H15.8259V15.142Z" fill="white"/>
</svg>
