<svg width="40" height="40" viewBox="0 0 40 40" fill="none" xmlns="http://www.w3.org/2000/svg">
<circle cx="20" cy="20" r="20" fill="white"/>
<path d="M20 21.8157C21.1814 21.8157 22.1391 20.858 22.1391 19.6766C22.1391 18.4952 21.1814 17.5375 20 17.5375C18.8186 17.5375 17.8609 18.4952 17.8609 19.6766C17.8609 20.858 18.8186 21.8157 20 21.8157Z" fill="white"/>
<path d="M19.7386 12.0047C15.5163 12.1389 14.2614 15.1551 13.9739 16.789C14.3486 16.1834 15.5294 14.8544 17.268 14.8544C19.2941 14.8544 20.8366 17.1159 21.7778 17.8217C22.9212 18.6793 25.2189 19.8117 28.2353 18.8936C30.6405 18.1616 31.756 15.6082 32 14.3969C30.8366 15.9786 29.0719 16.9286 26.8889 15.8087C25.3856 15.0374 24.2614 11.861 19.7386 12.0047Z" fill="#07B6D5"/>
<path d="M13.7647 19.1812C9.54248 19.3154 8.28758 22.3315 8 23.9655C8.37473 23.3598 9.55556 22.0309 11.2941 22.0309C13.3203 22.0309 14.8627 24.2923 15.8039 24.9982C16.9474 25.8558 19.245 26.9882 22.2614 26.0701C24.6667 25.3381 25.7821 22.7847 26.0261 21.5734C24.8627 23.1551 23.098 24.1051 20.915 22.9851C19.4118 22.2139 18.2876 19.0374 13.7647 19.1812Z" fill="#07B6D5"/>
</svg>
